<?xml version="1.0" encoding="iso-8859-1"?>
<!-- Uploaded to: SVG Repo, www.svgrepo.com, Generator: SVG Repo Mixer Tools -->
<svg fill="#000000" height="800px" width="800px" version="1.1" id="Capa_1" xmlns="http://www.w3.org/2000/svg" xmlns:xlink="http://www.w3.org/1999/xlink" 
	 viewBox="0 0 290.002 290.002" xml:space="preserve">
<g>
	<path id="path11024" d="M145.202,0.005c-1.094-0.044-2.172,0.273-3.068,0.9c-48.9,34.23-97.549,39.096-137.133,39.096
		c-2.762,0-5.001,2.239-5.001,5c0,0.248,0.018,0.496,0.055,0.742c7.51,50.064,17.482,110.381,38.484,158.75
		c10.501,24.185,23.784,45.447,41.199,60.818s39.095,24.689,65.262,24.689s47.846-9.318,65.262-24.689s30.698-36.634,41.199-60.818
		c21.002-48.369,30.975-108.686,38.484-158.75c0.41-2.731-1.472-5.277-4.203-5.687c-0.246-0.037-0.494-0.055-0.742-0.055
		c-39.167,0-88.268-9.792-137.428-39.287C146.854,0.283,146.039,0.039,145.202,0.005z M145.241,10.839
		c47.55,27.833,94.886,38.075,133.928,38.979c-7.407,48.796-17.354,105.726-36.879,150.691
		c-10.124,23.315-22.779,43.303-38.645,57.307c-15.866,14.004-34.811,22.186-58.645,22.186s-42.779-8.182-58.645-22.186
		c-15.866-14.004-28.521-33.991-38.645-57.307C28.197,155.565,18.25,98.672,10.844,49.892
		C49.615,49.391,97.397,43.35,145.241,10.839z M84.739,52.659c-0.225,0.003-0.448,0.037-0.664,0.1
		c-19.652,5.421-38.533,7.916-55.889,8.967c-1.378,0.083-2.428,1.268-2.346,2.646c0.005,0.083,0.014,0.165,0.027,0.247
		c7.165,44.459,16.773,92.825,33.311,130.912c0.521,1.279,1.979,1.894,3.258,1.373c1.279-0.521,1.894-1.979,1.373-3.258
		c-0.014-0.035-0.03-0.07-0.046-0.105C47.883,156.964,38.37,110.079,31.27,66.489c16.863-1.159,35.102-3.661,54.133-8.91
		c1.336-0.347,2.138-1.712,1.791-3.049C86.905,53.416,85.891,52.643,84.739,52.659z M140.674,80.001
		c-0.452,0.001-0.901,0.064-1.336,0.186c-1.517,0.188-2.999,0.592-4.318,1.383c-0.001,0.001-0.001,0.001-0.002,0.002
		c-0.478,0.289-0.903,0.656-1.26,1.086c-1.503,1.248-2.763,2.763-3.432,4.619c-0.001,0.001-0.001,0.003-0.002,0.004l-2.533,7.045
		c-2.212,0.751-4.365,1.64-6.459,2.672l-6.77-3.188h-0.002c-4.183-1.97-9.198-1.096-12.467,2.174l-6.113,6.117
		c-3.266,3.268-4.141,8.28-2.174,12.461c0.001,0.001,0.001,0.003,0.002,0.004l3.18,6.744c-1.041,2.105-1.939,4.269-2.695,6.492
		l-7.016,2.525c-4.35,1.565-7.279,5.73-7.277,10.354v8.646c0,0.001,0,0.003,0,0.004c0.002,4.621,2.931,8.782,7.279,10.346
		l7.041,2.529c0.751,2.214,1.643,4.369,2.676,6.465l-3.188,6.768c-1.971,4.183-1.096,9.2,2.174,12.469l6.111,6.115
		c0.001,0.001,0.001,0.003,0.002,0.004c3.27,3.266,8.284,4.139,12.465,2.168l0.004-0.002l6.75-3.178
		c2.104,1.038,4.267,1.933,6.486,2.686l2.523,7.021c0,0.001,0,0.001,0,0.002c1.564,4.348,5.727,7.275,10.348,7.277
		c0.001,0,0.001,0,0.002,0h8.652c0.001,0,0.001,0,0.002,0c4.621-0.002,8.784-2.929,10.348-7.277c0-0.001,0-0.001,0-0.002
		l2.533-7.051c2.209-0.748,4.36-1.638,6.455-2.668l6.775,3.191c4.18,1.971,9.195,1.098,12.465-2.168
		c0.001-0.001,0.001-0.003,0.002-0.004l6.111-6.115l0.002-0.002c3.268-3.269,4.142-8.285,2.172-12.467l-3.182-6.746
		c1.04-2.106,1.938-4.271,2.693-6.494l7.018-2.521c4.348-1.563,7.277-5.725,7.279-10.346c0-0.001,0-0.003,0-0.004v-8.646v-0.002
		c0-4.623-2.928-8.789-7.277-10.354h-0.002l-7.053-2.537c-0.749-2.209-1.638-4.361-2.668-6.455l3.191-6.762
		c1.975-4.185,1.099-9.206-2.174-12.477v-0.002l-6.111-6.109c-3.269-3.27-8.286-4.145-12.469-2.174l-6.754,3.182
		c-2.104-1.04-4.266-1.936-6.486-2.691l-2.521-7.02c-1.564-4.348-5.727-7.277-10.348-7.279c-0.001,0-0.001,0-0.002,0H140.674z
		 M140.79,90.001h8.535c0.439,0,0.793,0.249,0.941,0.662l3.322,9.252c0.545,1.515,1.786,2.675,3.334,3.117
		c3.256,0.929,6.35,2.213,9.305,3.861c1.408,0.786,3.108,0.845,4.566,0.158l8.906-4.195c0-0.001,0-0.001,0-0.002
		c0.398-0.187,0.824-0.112,1.135,0.199l6.113,6.113c0.001,0.001,0.001,0.001,0.002,0.002c0.311,0.311,0.385,0.737,0.197,1.135
		l-4.205,8.91c-0.688,1.457-0.631,3.156,0.152,4.564c1.637,2.945,2.912,6.033,3.836,9.279c0.441,1.549,1.602,2.791,3.117,3.336
		l9.291,3.342c0.414,0.149,0.662,0.504,0.662,0.943v8.646c0,0.439-0.249,0.793-0.662,0.941l-9.252,3.322
		c-1.516,0.545-2.676,1.787-3.117,3.336c-0.929,3.259-2.212,6.356-3.861,9.312c-0.786,1.408-0.844,3.109-0.156,4.568l4.195,8.896
		c0.187,0.398,0.112,0.822-0.199,1.133c-0.001,0.001-0.001,0.001-0.002,0.002l-6.109,6.115c-0.311,0.311-0.735,0.383-1.133,0.195
		c-0.001-0.001-0.003-0.001-0.004-0.002l-8.922-4.199c-1.455-0.685-3.151-0.628-4.557,0.152c-2.944,1.636-6.033,2.908-9.281,3.832
		c-1.55,0.441-2.793,1.602-3.338,3.119l-3.336,9.289c-0.148,0.413-0.501,0.661-0.939,0.662h-8.65h-0.002
		c-0.438-0.001-0.791-0.249-0.939-0.662l-3.328-9.258c-0.545-1.515-1.786-2.675-3.334-3.117c-3.258-0.928-6.354-2.207-9.305-3.852
		c-1.407-0.784-3.107-0.843-4.564-0.156l-8.902,4.189c-0.001,0.001-0.003,0.001-0.004,0.002c-0.398,0.188-0.822,0.115-1.133-0.195
		l-6.109-6.115c-0.001-0.001-0.001-0.001-0.002-0.002c-0.311-0.311-0.387-0.735-0.199-1.133c0.001-0.001,0.001-0.001,0.002-0.002
		l4.199-8.916c0.686-1.456,0.629-3.152-0.152-4.559c-1.642-2.954-2.923-6.044-3.846-9.289c-0.441-1.55-1.602-2.793-3.119-3.338
		l-9.275-3.332c-0.413-0.148-0.661-0.501-0.662-0.939v-8.648c0-0.44,0.248-0.795,0.662-0.943c0.001,0,0.001,0,0.002,0l9.248-3.328
		c1.514-0.545,2.673-1.785,3.115-3.332c0.929-3.255,2.215-6.351,3.865-9.309c0.786-1.409,0.845-3.111,0.156-4.57l-4.193-8.893
		c-0.187-0.397-0.113-0.822,0.197-1.133c0.001-0.001,0.001-0.001,0.002-0.002l6.111-6.115c0.311-0.311,0.737-0.387,1.135-0.199
		c0,0.001,0,0.001,0,0.002l8.922,4.199c1.456,0.686,3.152,0.629,4.559-0.152c2.95-1.64,6.036-2.919,9.279-3.842
		c1.549-0.441,2.791-1.602,3.336-3.117l3.338-9.281v0.004c0.078-0.218,0.227-0.4,0.426-0.52c0.155-0.093,0.333-0.141,0.514-0.141
		C140.713,90.005,140.751,90.003,140.79,90.001z M145.001,120.001c-13.748,0-25,11.252-25,25s11.252,25,25,25s25-11.252,25-25
		S158.749,120.001,145.001,120.001z M145.001,130.001c8.343,0,15,6.657,15,15s-6.657,15-15,15s-15-6.657-15-15
		S136.657,130.001,145.001,130.001z M145.001,132.501c-6.874,0-12.5,5.626-12.5,12.5c-0.02,1.381,1.084,2.516,2.465,2.535
		c1.381,0.02,2.516-1.084,2.535-2.465c0-0.024,0-0.047,0-0.071c0-4.172,3.328-7.5,7.5-7.5c1.381,0.02,2.516-1.084,2.535-2.465
		c0.02-1.381-1.084-2.516-2.465-2.535C145.048,132.501,145.024,132.501,145.001,132.501z"/>
</g>
</svg>